<svg xmlns="http://www.w3.org/2000/svg" xmlns:xlink="http://www.w3.org/1999/xlink" width="500" zoomAndPan="magnify" viewBox="0 0 375 374.999991" height="500" preserveAspectRatio="xMidYMid meet" version="1.0"><defs><g/><clipPath id="d154328156"><path d="M 24.386719 0.214844 L 39.761719 0.214844 L 39.761719 31.398438 L 24.386719 31.398438 Z M 24.386719 0.214844 " clip-rule="nonzero"/></clipPath><clipPath id="a781184177"><path d="M 24.386719 0.214844 L 39.761719 0.214844 L 39.761719 31 L 24.386719 31 Z M 24.386719 0.214844 " clip-rule="nonzero"/></clipPath><clipPath id="1e25b7ac04"><path d="M 24.386719 0.957031 C 32.554688 0.957031 39.1875 7.585938 39.1875 15.753906 C 39.1875 23.921875 32.554688 30.554688 24.386719 30.554688 L 24.386719 30.023438 C 32.261719 30.023438 38.65625 23.628906 38.65625 15.753906 C 38.65625 7.878906 32.261719 1.488281 24.386719 1.488281 Z M 24.386719 0.957031 " clip-rule="evenodd"/></clipPath><linearGradient x1="0.00000000172223" gradientTransform="matrix(0, 30.334883, -30.334883, 0, 24.388651, 0.956247)" y1="0" x2="0.975706" gradientUnits="userSpaceOnUse" y2="0" id="12353fe18f"><stop stop-opacity="1" stop-color="rgb(59.609985%, 39.99939%, 15.289307%)" offset="0"/><stop stop-opacity="1" stop-color="rgb(59.779358%, 40.136719%, 15.29541%)" offset="0.015625"/><stop stop-opacity="1" stop-color="rgb(60.119629%, 40.411377%, 15.307617%)" offset="0.03125"/><stop stop-opacity="1" stop-color="rgb(60.4599%, 40.686035%, 15.319824%)" offset="0.046875"/><stop stop-opacity="1" stop-color="rgb(60.801697%, 40.962219%, 15.332031%)" offset="0.0625"/><stop stop-opacity="1" stop-color="rgb(61.141968%, 41.236877%, 15.342712%)" offset="0.078125"/><stop stop-opacity="1" stop-color="rgb(61.482239%, 41.511536%, 15.354919%)" offset="0.09375"/><stop stop-opacity="1" stop-color="rgb(61.824036%, 41.786194%, 15.367126%)" offset="0.109375"/><stop stop-opacity="1" stop-color="rgb(62.164307%, 42.062378%, 15.379333%)" offset="0.125"/><stop stop-opacity="1" stop-color="rgb(62.504578%, 42.337036%, 15.391541%)" offset="0.140625"/><stop stop-opacity="1" stop-color="rgb(62.846375%, 42.611694%, 15.403748%)" offset="0.15625"/><stop stop-opacity="1" stop-color="rgb(63.186646%, 42.886353%, 15.415955%)" offset="0.171875"/><stop stop-opacity="1" stop-color="rgb(63.526917%, 43.162537%, 15.428162%)" offset="0.1875"/><stop stop-opacity="1" stop-color="rgb(63.867188%, 43.437195%, 15.440369%)" offset="0.203125"/><stop stop-opacity="1" stop-color="rgb(64.208984%, 43.711853%, 15.45105%)" offset="0.21875"/><stop stop-opacity="1" stop-color="rgb(64.549255%, 43.986511%, 15.463257%)" offset="0.234375"/><stop stop-opacity="1" stop-color="rgb(64.889526%, 44.262695%, 15.475464%)" offset="0.25"/><stop stop-opacity="1" stop-color="rgb(65.231323%, 44.537354%, 15.487671%)" offset="0.265625"/><stop stop-opacity="1" stop-color="rgb(65.571594%, 44.812012%, 15.499878%)" offset="0.28125"/><stop stop-opacity="1" stop-color="rgb(65.911865%, 45.08667%, 15.512085%)" offset="0.296875"/><stop stop-opacity="1" stop-color="rgb(66.253662%, 45.361328%, 15.524292%)" offset="0.3125"/><stop stop-opacity="1" stop-color="rgb(66.593933%, 45.637512%, 15.536499%)" offset="0.328125"/><stop stop-opacity="1" stop-color="rgb(66.934204%, 45.91217%, 15.548706%)" offset="0.34375"/><stop stop-opacity="1" stop-color="rgb(67.276001%, 46.186829%, 15.559387%)" offset="0.359375"/><stop stop-opacity="1" stop-color="rgb(67.616272%, 46.461487%, 15.571594%)" offset="0.375"/><stop stop-opacity="1" stop-color="rgb(67.956543%, 46.737671%, 15.583801%)" offset="0.390625"/><stop stop-opacity="1" stop-color="rgb(68.296814%, 47.012329%, 15.596008%)" offset="0.40625"/><stop stop-opacity="1" stop-color="rgb(68.638611%, 47.286987%, 15.608215%)" offset="0.421875"/><stop stop-opacity="1" stop-color="rgb(68.978882%, 47.561646%, 15.620422%)" offset="0.4375"/><stop stop-opacity="1" stop-color="rgb(69.319153%, 47.83783%, 15.632629%)" offset="0.453125"/><stop stop-opacity="1" stop-color="rgb(69.66095%, 48.112488%, 15.644836%)" offset="0.46875"/><stop stop-opacity="1" stop-color="rgb(70.001221%, 48.387146%, 15.657043%)" offset="0.484375"/><stop stop-opacity="1" stop-color="rgb(70.341492%, 48.661804%, 15.66925%)" offset="0.5"/><stop stop-opacity="1" stop-color="rgb(70.683289%, 48.937988%, 15.679932%)" offset="0.515625"/><stop stop-opacity="1" stop-color="rgb(71.02356%, 49.212646%, 15.692139%)" offset="0.53125"/><stop stop-opacity="1" stop-color="rgb(71.363831%, 49.487305%, 15.704346%)" offset="0.546875"/><stop stop-opacity="1" stop-color="rgb(71.704102%, 49.761963%, 15.716553%)" offset="0.5625"/><stop stop-opacity="1" stop-color="rgb(72.045898%, 50.038147%, 15.72876%)" offset="0.578125"/><stop stop-opacity="1" stop-color="rgb(72.386169%, 50.312805%, 15.740967%)" offset="0.59375"/><stop stop-opacity="1" stop-color="rgb(72.72644%, 50.587463%, 15.753174%)" offset="0.609375"/><stop stop-opacity="1" stop-color="rgb(73.068237%, 50.862122%, 15.765381%)" offset="0.625"/><stop stop-opacity="1" stop-color="rgb(73.408508%, 51.138306%, 15.777588%)" offset="0.640625"/><stop stop-opacity="1" stop-color="rgb(73.748779%, 51.412964%, 15.788269%)" offset="0.65625"/><stop stop-opacity="1" stop-color="rgb(74.090576%, 51.687622%, 15.800476%)" offset="0.671875"/><stop stop-opacity="1" stop-color="rgb(74.430847%, 51.96228%, 15.812683%)" offset="0.6875"/><stop stop-opacity="1" stop-color="rgb(74.771118%, 52.238464%, 15.82489%)" offset="0.703125"/><stop stop-opacity="1" stop-color="rgb(75.111389%, 52.513123%, 15.837097%)" offset="0.71875"/><stop stop-opacity="1" stop-color="rgb(75.453186%, 52.787781%, 15.849304%)" offset="0.734375"/><stop stop-opacity="1" stop-color="rgb(75.793457%, 53.062439%, 15.861511%)" offset="0.75"/><stop stop-opacity="1" stop-color="rgb(76.133728%, 53.338623%, 15.873718%)" offset="0.765625"/><stop stop-opacity="1" stop-color="rgb(76.475525%, 53.613281%, 15.885925%)" offset="0.78125"/><stop stop-opacity="1" stop-color="rgb(76.815796%, 53.887939%, 15.898132%)" offset="0.796875"/><stop stop-opacity="1" stop-color="rgb(77.156067%, 54.162598%, 15.908813%)" offset="0.8125"/><stop stop-opacity="1" stop-color="rgb(77.497864%, 54.437256%, 15.921021%)" offset="0.828125"/><stop stop-opacity="1" stop-color="rgb(77.838135%, 54.71344%, 15.933228%)" offset="0.84375"/><stop stop-opacity="1" stop-color="rgb(78.178406%, 54.988098%, 15.945435%)" offset="0.859375"/><stop stop-opacity="1" stop-color="rgb(78.520203%, 55.262756%, 15.957642%)" offset="0.875"/><stop stop-opacity="1" stop-color="rgb(78.860474%, 55.537415%, 15.969849%)" offset="0.890625"/><stop stop-opacity="1" stop-color="rgb(79.200745%, 55.813599%, 15.982056%)" offset="0.90625"/><stop stop-opacity="1" stop-color="rgb(79.541016%, 56.088257%, 15.994263%)" offset="0.921875"/><stop stop-opacity="1" stop-color="rgb(79.882812%, 56.362915%, 16.00647%)" offset="0.9375"/><stop stop-opacity="1" stop-color="rgb(80.223083%, 56.637573%, 16.017151%)" offset="0.953125"/><stop stop-opacity="1" stop-color="rgb(80.563354%, 56.913757%, 16.029358%)" offset="0.96875"/><stop stop-opacity="1" stop-color="rgb(80.905151%, 57.188416%, 16.041565%)" offset="0.984375"/><stop stop-opacity="1" stop-color="rgb(81.245422%, 57.463074%, 16.053772%)" offset="1"/></linearGradient><clipPath id="090a34eba4"><path d="M 24.386719 4 L 36 4 L 36 27 L 24.386719 27 Z M 24.386719 4 " clip-rule="nonzero"/></clipPath><clipPath id="2027aa0f37"><path d="M 24.386719 9 L 31 9 L 31 22 L 24.386719 22 Z M 24.386719 9 " clip-rule="nonzero"/></clipPath><clipPath id="b52d68fb61"><path d="M 8.84375 0.214844 L 24.214844 0.214844 L 24.214844 31.398438 L 8.84375 31.398438 Z M 8.84375 0.214844 " clip-rule="nonzero"/></clipPath><clipPath id="e598a52f9f"><path d="M 1.007812 0.214844 L 16.214844 0.214844 L 16.214844 31.398438 L 1.007812 31.398438 Z M 1.007812 0.214844 " clip-rule="nonzero"/></clipPath><clipPath id="4d417a3b5e"><path d="M 1.007812 0.214844 L 16.214844 0.214844 L 16.214844 31 L 1.007812 31 Z M 1.007812 0.214844 " clip-rule="nonzero"/></clipPath><clipPath id="39ba3e8913"><path d="M 16.378906 0.957031 C 8.210938 0.957031 1.582031 7.585938 1.582031 15.753906 C 1.582031 23.921875 8.210938 30.554688 16.378906 30.554688 L 16.378906 30.023438 C 8.503906 30.023438 2.113281 23.628906 2.113281 15.753906 C 2.113281 7.878906 8.503906 1.488281 16.378906 1.488281 Z M 16.378906 0.957031 " clip-rule="evenodd"/></clipPath><linearGradient x1="0.00000000172223" gradientTransform="matrix(0, 30.334883, 30.334883, 0, 16.379891, 0.956247)" y1="0" x2="0.975706" gradientUnits="userSpaceOnUse" y2="0" id="6a0410d441"><stop stop-opacity="1" stop-color="rgb(59.609985%, 39.99939%, 15.289307%)" offset="0"/><stop stop-opacity="1" stop-color="rgb(59.779358%, 40.136719%, 15.29541%)" offset="0.015625"/><stop stop-opacity="1" stop-color="rgb(60.119629%, 40.411377%, 15.307617%)" offset="0.03125"/><stop stop-opacity="1" stop-color="rgb(60.4599%, 40.686035%, 15.319824%)" offset="0.046875"/><stop stop-opacity="1" stop-color="rgb(60.801697%, 40.962219%, 15.332031%)" offset="0.0625"/><stop stop-opacity="1" stop-color="rgb(61.141968%, 41.236877%, 15.342712%)" offset="0.078125"/><stop stop-opacity="1" stop-color="rgb(61.482239%, 41.511536%, 15.354919%)" offset="0.09375"/><stop stop-opacity="1" stop-color="rgb(61.824036%, 41.786194%, 15.367126%)" offset="0.109375"/><stop stop-opacity="1" stop-color="rgb(62.164307%, 42.062378%, 15.379333%)" offset="0.125"/><stop stop-opacity="1" stop-color="rgb(62.504578%, 42.337036%, 15.391541%)" offset="0.140625"/><stop stop-opacity="1" stop-color="rgb(62.846375%, 42.611694%, 15.403748%)" offset="0.15625"/><stop stop-opacity="1" stop-color="rgb(63.186646%, 42.886353%, 15.415955%)" offset="0.171875"/><stop stop-opacity="1" stop-color="rgb(63.526917%, 43.162537%, 15.428162%)" offset="0.1875"/><stop stop-opacity="1" stop-color="rgb(63.867188%, 43.437195%, 15.440369%)" offset="0.203125"/><stop stop-opacity="1" stop-color="rgb(64.208984%, 43.711853%, 15.45105%)" offset="0.21875"/><stop stop-opacity="1" stop-color="rgb(64.549255%, 43.986511%, 15.463257%)" offset="0.234375"/><stop stop-opacity="1" stop-color="rgb(64.889526%, 44.262695%, 15.475464%)" offset="0.25"/><stop stop-opacity="1" stop-color="rgb(65.231323%, 44.537354%, 15.487671%)" offset="0.265625"/><stop stop-opacity="1" stop-color="rgb(65.571594%, 44.812012%, 15.499878%)" offset="0.28125"/><stop stop-opacity="1" stop-color="rgb(65.911865%, 45.08667%, 15.512085%)" offset="0.296875"/><stop stop-opacity="1" stop-color="rgb(66.253662%, 45.361328%, 15.524292%)" offset="0.3125"/><stop stop-opacity="1" stop-color="rgb(66.593933%, 45.637512%, 15.536499%)" offset="0.328125"/><stop stop-opacity="1" stop-color="rgb(66.934204%, 45.91217%, 15.548706%)" offset="0.34375"/><stop stop-opacity="1" stop-color="rgb(67.276001%, 46.186829%, 15.559387%)" offset="0.359375"/><stop stop-opacity="1" stop-color="rgb(67.616272%, 46.461487%, 15.571594%)" offset="0.375"/><stop stop-opacity="1" stop-color="rgb(67.956543%, 46.737671%, 15.583801%)" offset="0.390625"/><stop stop-opacity="1" stop-color="rgb(68.296814%, 47.012329%, 15.596008%)" offset="0.40625"/><stop stop-opacity="1" stop-color="rgb(68.638611%, 47.286987%, 15.608215%)" offset="0.421875"/><stop stop-opacity="1" stop-color="rgb(68.978882%, 47.561646%, 15.620422%)" offset="0.4375"/><stop stop-opacity="1" stop-color="rgb(69.319153%, 47.83783%, 15.632629%)" offset="0.453125"/><stop stop-opacity="1" stop-color="rgb(69.66095%, 48.112488%, 15.644836%)" offset="0.46875"/><stop stop-opacity="1" stop-color="rgb(70.001221%, 48.387146%, 15.657043%)" offset="0.484375"/><stop stop-opacity="1" stop-color="rgb(70.341492%, 48.661804%, 15.66925%)" offset="0.5"/><stop stop-opacity="1" stop-color="rgb(70.683289%, 48.937988%, 15.679932%)" offset="0.515625"/><stop stop-opacity="1" stop-color="rgb(71.02356%, 49.212646%, 15.692139%)" offset="0.53125"/><stop stop-opacity="1" stop-color="rgb(71.363831%, 49.487305%, 15.704346%)" offset="0.546875"/><stop stop-opacity="1" stop-color="rgb(71.704102%, 49.761963%, 15.716553%)" offset="0.5625"/><stop stop-opacity="1" stop-color="rgb(72.045898%, 50.038147%, 15.72876%)" offset="0.578125"/><stop stop-opacity="1" stop-color="rgb(72.386169%, 50.312805%, 15.740967%)" offset="0.59375"/><stop stop-opacity="1" stop-color="rgb(72.72644%, 50.587463%, 15.753174%)" offset="0.609375"/><stop stop-opacity="1" stop-color="rgb(73.068237%, 50.862122%, 15.765381%)" offset="0.625"/><stop stop-opacity="1" stop-color="rgb(73.408508%, 51.138306%, 15.777588%)" offset="0.640625"/><stop stop-opacity="1" stop-color="rgb(73.748779%, 51.412964%, 15.788269%)" offset="0.65625"/><stop stop-opacity="1" stop-color="rgb(74.090576%, 51.687622%, 15.800476%)" offset="0.671875"/><stop stop-opacity="1" stop-color="rgb(74.430847%, 51.96228%, 15.812683%)" offset="0.6875"/><stop stop-opacity="1" stop-color="rgb(74.771118%, 52.238464%, 15.82489%)" offset="0.703125"/><stop stop-opacity="1" stop-color="rgb(75.111389%, 52.513123%, 15.837097%)" offset="0.71875"/><stop stop-opacity="1" stop-color="rgb(75.453186%, 52.787781%, 15.849304%)" offset="0.734375"/><stop stop-opacity="1" stop-color="rgb(75.793457%, 53.062439%, 15.861511%)" offset="0.75"/><stop stop-opacity="1" stop-color="rgb(76.133728%, 53.338623%, 15.873718%)" offset="0.765625"/><stop stop-opacity="1" stop-color="rgb(76.475525%, 53.613281%, 15.885925%)" offset="0.78125"/><stop stop-opacity="1" stop-color="rgb(76.815796%, 53.887939%, 15.898132%)" offset="0.796875"/><stop stop-opacity="1" stop-color="rgb(77.156067%, 54.162598%, 15.908813%)" offset="0.8125"/><stop stop-opacity="1" stop-color="rgb(77.497864%, 54.437256%, 15.921021%)" offset="0.828125"/><stop stop-opacity="1" stop-color="rgb(77.838135%, 54.71344%, 15.933228%)" offset="0.84375"/><stop stop-opacity="1" stop-color="rgb(78.178406%, 54.988098%, 15.945435%)" offset="0.859375"/><stop stop-opacity="1" stop-color="rgb(78.520203%, 55.262756%, 15.957642%)" offset="0.875"/><stop stop-opacity="1" stop-color="rgb(78.860474%, 55.537415%, 15.969849%)" offset="0.890625"/><stop stop-opacity="1" stop-color="rgb(79.200745%, 55.813599%, 15.982056%)" offset="0.90625"/><stop stop-opacity="1" stop-color="rgb(79.541016%, 56.088257%, 15.994263%)" offset="0.921875"/><stop stop-opacity="1" stop-color="rgb(79.882812%, 56.362915%, 16.00647%)" offset="0.9375"/><stop stop-opacity="1" stop-color="rgb(80.223083%, 56.637573%, 16.017151%)" offset="0.953125"/><stop stop-opacity="1" stop-color="rgb(80.563354%, 56.913757%, 16.029358%)" offset="0.96875"/><stop stop-opacity="1" stop-color="rgb(80.905151%, 57.188416%, 16.041565%)" offset="0.984375"/><stop stop-opacity="1" stop-color="rgb(81.245422%, 57.463074%, 16.053772%)" offset="1"/></linearGradient><clipPath id="44bb6e709b"><path d="M 5 4 L 16.214844 4 L 16.214844 27 L 5 27 Z M 5 4 " clip-rule="nonzero"/></clipPath><clipPath id="81f68afa8b"><path d="M 10 9 L 16.214844 9 L 16.214844 22 L 10 22 Z M 10 9 " clip-rule="nonzero"/></clipPath><clipPath id="66d2dd8780"><rect x="0" width="17" y="0" height="32"/></clipPath><clipPath id="8d76225959"><rect x="0" width="48" y="0" height="32"/></clipPath><clipPath id="71aa40b339"><path d="M 13.589844 0.992188 L 22.355469 0.992188 L 22.355469 18.761719 L 13.589844 18.761719 Z M 13.589844 0.992188 " clip-rule="nonzero"/></clipPath><clipPath id="1554dcc471"><path d="M 13.589844 1 L 22.355469 1 L 22.355469 18.761719 L 13.589844 18.761719 Z M 13.589844 1 " clip-rule="nonzero"/></clipPath><clipPath id="a3334a16a3"><path d="M 13.589844 1.414062 C 18.246094 1.414062 22.027344 5.191406 22.027344 9.847656 C 22.027344 14.503906 18.246094 18.285156 13.589844 18.285156 L 13.589844 17.980469 C 18.082031 17.980469 21.722656 14.335938 21.722656 9.847656 C 21.722656 5.359375 18.082031 1.714844 13.589844 1.714844 Z M 13.589844 1.414062 " clip-rule="evenodd"/></clipPath><linearGradient x1="0.00000000275242" gradientTransform="matrix(0, 17.290777, -17.290777, 0, 13.591525, 1.413214)" y1="0" x2="0.975706" gradientUnits="userSpaceOnUse" y2="0" id="7d3aa02626"><stop stop-opacity="1" stop-color="rgb(59.609985%, 39.99939%, 15.289307%)" offset="0"/><stop stop-opacity="1" stop-color="rgb(59.779358%, 40.136719%, 15.29541%)" offset="0.015625"/><stop stop-opacity="1" stop-color="rgb(60.119629%, 40.411377%, 15.307617%)" offset="0.03125"/><stop stop-opacity="1" stop-color="rgb(60.4599%, 40.686035%, 15.319824%)" offset="0.046875"/><stop stop-opacity="1" stop-color="rgb(60.801697%, 40.962219%, 15.332031%)" offset="0.0625"/><stop stop-opacity="1" stop-color="rgb(61.141968%, 41.236877%, 15.342712%)" offset="0.078125"/><stop stop-opacity="1" stop-color="rgb(61.482239%, 41.511536%, 15.354919%)" offset="0.09375"/><stop stop-opacity="1" stop-color="rgb(61.824036%, 41.786194%, 15.367126%)" offset="0.109375"/><stop stop-opacity="1" stop-color="rgb(62.164307%, 42.062378%, 15.379333%)" offset="0.125"/><stop stop-opacity="1" stop-color="rgb(62.504578%, 42.337036%, 15.391541%)" offset="0.140625"/><stop stop-opacity="1" stop-color="rgb(62.846375%, 42.611694%, 15.403748%)" offset="0.15625"/><stop stop-opacity="1" stop-color="rgb(63.186646%, 42.886353%, 15.415955%)" offset="0.171875"/><stop stop-opacity="1" stop-color="rgb(63.526917%, 43.162537%, 15.428162%)" offset="0.1875"/><stop stop-opacity="1" stop-color="rgb(63.867188%, 43.437195%, 15.440369%)" offset="0.203125"/><stop stop-opacity="1" stop-color="rgb(64.208984%, 43.711853%, 15.45105%)" offset="0.21875"/><stop stop-opacity="1" stop-color="rgb(64.549255%, 43.986511%, 15.463257%)" offset="0.234375"/><stop stop-opacity="1" stop-color="rgb(64.889526%, 44.262695%, 15.475464%)" offset="0.25"/><stop stop-opacity="1" stop-color="rgb(65.231323%, 44.537354%, 15.487671%)" offset="0.265625"/><stop stop-opacity="1" stop-color="rgb(65.571594%, 44.812012%, 15.499878%)" offset="0.28125"/><stop stop-opacity="1" stop-color="rgb(65.911865%, 45.08667%, 15.512085%)" offset="0.296875"/><stop stop-opacity="1" stop-color="rgb(66.253662%, 45.361328%, 15.524292%)" offset="0.3125"/><stop stop-opacity="1" stop-color="rgb(66.593933%, 45.637512%, 15.536499%)" offset="0.328125"/><stop stop-opacity="1" stop-color="rgb(66.934204%, 45.91217%, 15.548706%)" offset="0.34375"/><stop stop-opacity="1" stop-color="rgb(67.276001%, 46.186829%, 15.559387%)" offset="0.359375"/><stop stop-opacity="1" stop-color="rgb(67.616272%, 46.461487%, 15.571594%)" offset="0.375"/><stop stop-opacity="1" stop-color="rgb(67.956543%, 46.737671%, 15.583801%)" offset="0.390625"/><stop stop-opacity="1" stop-color="rgb(68.296814%, 47.012329%, 15.596008%)" offset="0.40625"/><stop stop-opacity="1" stop-color="rgb(68.638611%, 47.286987%, 15.608215%)" offset="0.421875"/><stop stop-opacity="1" stop-color="rgb(68.978882%, 47.561646%, 15.620422%)" offset="0.4375"/><stop stop-opacity="1" stop-color="rgb(69.319153%, 47.83783%, 15.632629%)" offset="0.453125"/><stop stop-opacity="1" stop-color="rgb(69.66095%, 48.112488%, 15.644836%)" offset="0.46875"/><stop stop-opacity="1" stop-color="rgb(70.001221%, 48.387146%, 15.657043%)" offset="0.484375"/><stop stop-opacity="1" stop-color="rgb(70.341492%, 48.661804%, 15.66925%)" offset="0.5"/><stop stop-opacity="1" stop-color="rgb(70.683289%, 48.937988%, 15.679932%)" offset="0.515625"/><stop stop-opacity="1" stop-color="rgb(71.02356%, 49.212646%, 15.692139%)" offset="0.53125"/><stop stop-opacity="1" stop-color="rgb(71.363831%, 49.487305%, 15.704346%)" offset="0.546875"/><stop stop-opacity="1" stop-color="rgb(71.704102%, 49.761963%, 15.716553%)" offset="0.5625"/><stop stop-opacity="1" stop-color="rgb(72.045898%, 50.038147%, 15.72876%)" offset="0.578125"/><stop stop-opacity="1" stop-color="rgb(72.386169%, 50.312805%, 15.740967%)" offset="0.59375"/><stop stop-opacity="1" stop-color="rgb(72.72644%, 50.587463%, 15.753174%)" offset="0.609375"/><stop stop-opacity="1" stop-color="rgb(73.068237%, 50.862122%, 15.765381%)" offset="0.625"/><stop stop-opacity="1" stop-color="rgb(73.408508%, 51.138306%, 15.777588%)" offset="0.640625"/><stop stop-opacity="1" stop-color="rgb(73.748779%, 51.412964%, 15.788269%)" offset="0.65625"/><stop stop-opacity="1" stop-color="rgb(74.090576%, 51.687622%, 15.800476%)" offset="0.671875"/><stop stop-opacity="1" stop-color="rgb(74.430847%, 51.96228%, 15.812683%)" offset="0.6875"/><stop stop-opacity="1" stop-color="rgb(74.771118%, 52.238464%, 15.82489%)" offset="0.703125"/><stop stop-opacity="1" stop-color="rgb(75.111389%, 52.513123%, 15.837097%)" offset="0.71875"/><stop stop-opacity="1" stop-color="rgb(75.453186%, 52.787781%, 15.849304%)" offset="0.734375"/><stop stop-opacity="1" stop-color="rgb(75.793457%, 53.062439%, 15.861511%)" offset="0.75"/><stop stop-opacity="1" stop-color="rgb(76.133728%, 53.338623%, 15.873718%)" offset="0.765625"/><stop stop-opacity="1" stop-color="rgb(76.475525%, 53.613281%, 15.885925%)" offset="0.78125"/><stop stop-opacity="1" stop-color="rgb(76.815796%, 53.887939%, 15.898132%)" offset="0.796875"/><stop stop-opacity="1" stop-color="rgb(77.156067%, 54.162598%, 15.908813%)" offset="0.8125"/><stop stop-opacity="1" stop-color="rgb(77.497864%, 54.437256%, 15.921021%)" offset="0.828125"/><stop stop-opacity="1" stop-color="rgb(77.838135%, 54.71344%, 15.933228%)" offset="0.84375"/><stop stop-opacity="1" stop-color="rgb(78.178406%, 54.988098%, 15.945435%)" offset="0.859375"/><stop stop-opacity="1" stop-color="rgb(78.520203%, 55.262756%, 15.957642%)" offset="0.875"/><stop stop-opacity="1" stop-color="rgb(78.860474%, 55.537415%, 15.969849%)" offset="0.890625"/><stop stop-opacity="1" stop-color="rgb(79.200745%, 55.813599%, 15.982056%)" offset="0.90625"/><stop stop-opacity="1" stop-color="rgb(79.541016%, 56.088257%, 15.994263%)" offset="0.921875"/><stop stop-opacity="1" stop-color="rgb(79.882812%, 56.362915%, 16.00647%)" offset="0.9375"/><stop stop-opacity="1" stop-color="rgb(80.223083%, 56.637573%, 16.017151%)" offset="0.953125"/><stop stop-opacity="1" stop-color="rgb(80.563354%, 56.913757%, 16.029358%)" offset="0.96875"/><stop stop-opacity="1" stop-color="rgb(80.905151%, 57.188416%, 16.041565%)" offset="0.984375"/><stop stop-opacity="1" stop-color="rgb(81.245422%, 57.463074%, 16.053772%)" offset="1"/></linearGradient><clipPath id="7c3e9b5452"><path d="M 13.589844 3 L 20 3 L 20 17 L 13.589844 17 Z M 13.589844 3 " clip-rule="nonzero"/></clipPath><clipPath id="9fcab84d88"><path d="M 13.589844 6 L 18 6 L 18 14 L 13.589844 14 Z M 13.589844 6 " clip-rule="nonzero"/></clipPath><clipPath id="11b3815bf1"><path d="M 4.730469 0.992188 L 13.492188 0.992188 L 13.492188 18.761719 L 4.730469 18.761719 Z M 4.730469 0.992188 " clip-rule="nonzero"/></clipPath><clipPath id="cd420ce05b"><path d="M 0.824219 0.992188 L 9.492188 0.992188 L 9.492188 18.761719 L 0.824219 18.761719 Z M 0.824219 0.992188 " clip-rule="nonzero"/></clipPath><clipPath id="ca89504766"><path d="M 1 1 L 9.492188 1 L 9.492188 18.761719 L 1 18.761719 Z M 1 1 " clip-rule="nonzero"/></clipPath><clipPath id="8aa2f62291"><path d="M 9.585938 1.414062 C 4.929688 1.414062 1.152344 5.191406 1.152344 9.847656 C 1.152344 14.503906 4.929688 18.285156 9.585938 18.285156 L 9.585938 17.980469 C 5.097656 17.980469 1.453125 14.335938 1.453125 9.847656 C 1.453125 5.359375 5.097656 1.714844 9.585938 1.714844 Z M 9.585938 1.414062 " clip-rule="evenodd"/></clipPath><linearGradient x1="0.00000000254812" gradientTransform="matrix(0, 17.290775, 17.290775, 0, 9.586508, 1.413214)" y1="0" x2="0.975706" gradientUnits="userSpaceOnUse" y2="0" id="a51ec9fc06"><stop stop-opacity="1" stop-color="rgb(59.609985%, 39.99939%, 15.289307%)" offset="0"/><stop stop-opacity="1" stop-color="rgb(59.779358%, 40.136719%, 15.29541%)" offset="0.015625"/><stop stop-opacity="1" stop-color="rgb(60.119629%, 40.411377%, 15.307617%)" offset="0.03125"/><stop stop-opacity="1" stop-color="rgb(60.4599%, 40.686035%, 15.319824%)" offset="0.046875"/><stop stop-opacity="1" stop-color="rgb(60.801697%, 40.962219%, 15.332031%)" offset="0.0625"/><stop stop-opacity="1" stop-color="rgb(61.141968%, 41.236877%, 15.342712%)" offset="0.078125"/><stop stop-opacity="1" stop-color="rgb(61.482239%, 41.511536%, 15.354919%)" offset="0.09375"/><stop stop-opacity="1" stop-color="rgb(61.824036%, 41.786194%, 15.367126%)" offset="0.109375"/><stop stop-opacity="1" stop-color="rgb(62.164307%, 42.062378%, 15.379333%)" offset="0.125"/><stop stop-opacity="1" stop-color="rgb(62.504578%, 42.337036%, 15.391541%)" offset="0.140625"/><stop stop-opacity="1" stop-color="rgb(62.846375%, 42.611694%, 15.403748%)" offset="0.15625"/><stop stop-opacity="1" stop-color="rgb(63.186646%, 42.886353%, 15.415955%)" offset="0.171875"/><stop stop-opacity="1" stop-color="rgb(63.526917%, 43.162537%, 15.428162%)" offset="0.1875"/><stop stop-opacity="1" stop-color="rgb(63.867188%, 43.437195%, 15.440369%)" offset="0.203125"/><stop stop-opacity="1" stop-color="rgb(64.208984%, 43.711853%, 15.45105%)" offset="0.21875"/><stop stop-opacity="1" stop-color="rgb(64.549255%, 43.986511%, 15.463257%)" offset="0.234375"/><stop stop-opacity="1" stop-color="rgb(64.889526%, 44.262695%, 15.475464%)" offset="0.25"/><stop stop-opacity="1" stop-color="rgb(65.231323%, 44.537354%, 15.487671%)" offset="0.265625"/><stop stop-opacity="1" stop-color="rgb(65.571594%, 44.812012%, 15.499878%)" offset="0.28125"/><stop stop-opacity="1" stop-color="rgb(65.911865%, 45.08667%, 15.512085%)" offset="0.296875"/><stop stop-opacity="1" stop-color="rgb(66.253662%, 45.361328%, 15.524292%)" offset="0.3125"/><stop stop-opacity="1" stop-color="rgb(66.593933%, 45.637512%, 15.536499%)" offset="0.328125"/><stop stop-opacity="1" stop-color="rgb(66.934204%, 45.91217%, 15.548706%)" offset="0.34375"/><stop stop-opacity="1" stop-color="rgb(67.276001%, 46.186829%, 15.559387%)" offset="0.359375"/><stop stop-opacity="1" stop-color="rgb(67.616272%, 46.461487%, 15.571594%)" offset="0.375"/><stop stop-opacity="1" stop-color="rgb(67.956543%, 46.737671%, 15.583801%)" offset="0.390625"/><stop stop-opacity="1" stop-color="rgb(68.296814%, 47.012329%, 15.596008%)" offset="0.40625"/><stop stop-opacity="1" stop-color="rgb(68.638611%, 47.286987%, 15.608215%)" offset="0.421875"/><stop stop-opacity="1" stop-color="rgb(68.978882%, 47.561646%, 15.620422%)" offset="0.4375"/><stop stop-opacity="1" stop-color="rgb(69.319153%, 47.83783%, 15.632629%)" offset="0.453125"/><stop stop-opacity="1" stop-color="rgb(69.66095%, 48.112488%, 15.644836%)" offset="0.46875"/><stop stop-opacity="1" stop-color="rgb(70.001221%, 48.387146%, 15.657043%)" offset="0.484375"/><stop stop-opacity="1" stop-color="rgb(70.341492%, 48.661804%, 15.66925%)" offset="0.5"/><stop stop-opacity="1" stop-color="rgb(70.683289%, 48.937988%, 15.679932%)" offset="0.515625"/><stop stop-opacity="1" stop-color="rgb(71.02356%, 49.212646%, 15.692139%)" offset="0.53125"/><stop stop-opacity="1" stop-color="rgb(71.363831%, 49.487305%, 15.704346%)" offset="0.546875"/><stop stop-opacity="1" stop-color="rgb(71.704102%, 49.761963%, 15.716553%)" offset="0.5625"/><stop stop-opacity="1" stop-color="rgb(72.045898%, 50.038147%, 15.72876%)" offset="0.578125"/><stop stop-opacity="1" stop-color="rgb(72.386169%, 50.312805%, 15.740967%)" offset="0.59375"/><stop stop-opacity="1" stop-color="rgb(72.72644%, 50.587463%, 15.753174%)" offset="0.609375"/><stop stop-opacity="1" stop-color="rgb(73.068237%, 50.862122%, 15.765381%)" offset="0.625"/><stop stop-opacity="1" stop-color="rgb(73.408508%, 51.138306%, 15.777588%)" offset="0.640625"/><stop stop-opacity="1" stop-color="rgb(73.748779%, 51.412964%, 15.788269%)" offset="0.65625"/><stop stop-opacity="1" stop-color="rgb(74.090576%, 51.687622%, 15.800476%)" offset="0.671875"/><stop stop-opacity="1" stop-color="rgb(74.430847%, 51.96228%, 15.812683%)" offset="0.6875"/><stop stop-opacity="1" stop-color="rgb(74.771118%, 52.238464%, 15.82489%)" offset="0.703125"/><stop stop-opacity="1" stop-color="rgb(75.111389%, 52.513123%, 15.837097%)" offset="0.71875"/><stop stop-opacity="1" stop-color="rgb(75.453186%, 52.787781%, 15.849304%)" offset="0.734375"/><stop stop-opacity="1" stop-color="rgb(75.793457%, 53.062439%, 15.861511%)" offset="0.75"/><stop stop-opacity="1" stop-color="rgb(76.133728%, 53.338623%, 15.873718%)" offset="0.765625"/><stop stop-opacity="1" stop-color="rgb(76.475525%, 53.613281%, 15.885925%)" offset="0.78125"/><stop stop-opacity="1" stop-color="rgb(76.815796%, 53.887939%, 15.898132%)" offset="0.796875"/><stop stop-opacity="1" stop-color="rgb(77.156067%, 54.162598%, 15.908813%)" offset="0.8125"/><stop stop-opacity="1" stop-color="rgb(77.497864%, 54.437256%, 15.921021%)" offset="0.828125"/><stop stop-opacity="1" stop-color="rgb(77.838135%, 54.71344%, 15.933228%)" offset="0.84375"/><stop stop-opacity="1" stop-color="rgb(78.178406%, 54.988098%, 15.945435%)" offset="0.859375"/><stop stop-opacity="1" stop-color="rgb(78.520203%, 55.262756%, 15.957642%)" offset="0.875"/><stop stop-opacity="1" stop-color="rgb(78.860474%, 55.537415%, 15.969849%)" offset="0.890625"/><stop stop-opacity="1" stop-color="rgb(79.200745%, 55.813599%, 15.982056%)" offset="0.90625"/><stop stop-opacity="1" stop-color="rgb(79.541016%, 56.088257%, 15.994263%)" offset="0.921875"/><stop stop-opacity="1" stop-color="rgb(79.882812%, 56.362915%, 16.00647%)" offset="0.9375"/><stop stop-opacity="1" stop-color="rgb(80.223083%, 56.637573%, 16.017151%)" offset="0.953125"/><stop stop-opacity="1" stop-color="rgb(80.563354%, 56.913757%, 16.029358%)" offset="0.96875"/><stop stop-opacity="1" stop-color="rgb(80.905151%, 57.188416%, 16.041565%)" offset="0.984375"/><stop stop-opacity="1" stop-color="rgb(81.245422%, 57.463074%, 16.053772%)" offset="1"/></linearGradient><clipPath id="ec39d9121b"><path d="M 3 3 L 9.492188 3 L 9.492188 17 L 3 17 Z M 3 3 " clip-rule="nonzero"/></clipPath><clipPath id="c491451abe"><path d="M 6 6 L 9.492188 6 L 9.492188 14 L 6 14 Z M 6 6 " clip-rule="nonzero"/></clipPath><clipPath id="7289ec23c0"><rect x="0" width="10" y="0" height="19"/></clipPath><clipPath id="543d5ae568"><rect x="0" width="28" y="0" height="19"/></clipPath><clipPath id="4ddf42db3d"><path d="M 127.695312 145.601562 L 187.5 145.601562 L 187.5 181.042969 L 127.695312 181.042969 Z M 127.695312 145.601562 " clip-rule="nonzero"/></clipPath><clipPath id="48c8193d31"><path d="M 154.273438 145.601562 C 162.027344 145.601562 168.007812 150.585938 170.445312 156.675781 C 171.773438 156.234375 173.214844 156.011719 174.761719 156.011719 C 181.742188 156.011719 187.5 161.773438 187.5 168.75 C 187.5 175.835938 181.960938 181.042969 175.316406 181.042969 L 140.984375 181.042969 C 132.125 181.042969 127.804688 176.722656 127.804688 170.632812 C 127.804688 164.871094 132.234375 160.109375 137.773438 159.667969 C 139.324219 152.027344 145.414062 145.601562 154.273438 145.601562 Z M 154.273438 145.601562 " clip-rule="nonzero"/></clipPath><clipPath id="4428824c51"><path d="M 0.695312 0.601562 L 60.5 0.601562 L 60.5 36.042969 L 0.695312 36.042969 Z M 0.695312 0.601562 " clip-rule="nonzero"/></clipPath><clipPath id="c1775db62a"><path d="M 27.273438 0.601562 C 35.027344 0.601562 41.007812 5.585938 43.445312 11.675781 C 44.773438 11.234375 46.214844 11.011719 47.761719 11.011719 C 54.742188 11.011719 60.5 16.773438 60.5 23.75 C 60.5 30.835938 54.960938 36.042969 48.316406 36.042969 L 13.984375 36.042969 C 5.125 36.042969 0.804688 31.722656 0.804688 25.632812 C 0.804688 19.871094 5.234375 15.109375 10.773438 14.667969 C 12.324219 7.027344 18.414062 0.601562 27.273438 0.601562 Z M 27.273438 0.601562 " clip-rule="nonzero"/></clipPath><clipPath id="36535429c9"><rect x="0" width="61" y="0" height="37"/></clipPath><clipPath id="b7fdb71429"><rect x="0" width="140" y="0" height="36"/></clipPath></defs><rect x="-37.5" width="450" fill="#ffffff" y="-37.499999" height="449.999989" fill-opacity="1"/><rect x="-37.5" width="450" fill="#ffffff" y="-37.499999" height="449.999989" fill-opacity="1"/><path fill="#0a2351" d="M 196.160156 249.1875 L 195.738281 240.828125 C 190.664062 242.914062 185.597656 244.71875 180.582031 246.25 L 180.4375 249.1875 C 161.058594 250.367188 145.59375 255.832031 141.4375 262.855469 C 141.035156 263.539062 141.53125 264.398438 142.324219 264.398438 L 157.734375 264.398438 C 158.433594 264.398438 159.117188 264.148438 159.640625 263.675781 C 164.65625 259.160156 175.601562 256.03125 188.296875 256.03125 C 200.996094 256.03125 211.941406 259.160156 216.957031 263.675781 C 217.480469 264.148438 218.160156 264.398438 218.863281 264.398438 L 234.273438 264.398438 C 235.0625 264.398438 235.5625 263.539062 235.160156 262.855469 C 231 255.832031 215.539062 250.367188 196.160156 249.1875 " fill-opacity="1" fill-rule="nonzero"/><path fill="#0a2351" d="M 105.960938 222.070312 C 97.769531 207.132812 101.828125 187.566406 114.832031 169.074219 L 114.832031 153.492188 C 94.625 175.878906 86.664062 201.089844 96.714844 219.417969 C 102.707031 230.34375 114.207031 237.183594 128.820312 239.871094 C 118.628906 236.492188 110.605469 230.542969 105.960938 222.070312 " fill-opacity="1" fill-rule="nonzero"/><path fill="#4481ac" d="M 266.285156 126.421875 C 251.15625 98.828125 200.929688 97.277344 154.101562 122.960938 C 148.070312 126.265625 142.390625 129.867188 137.101562 133.683594 L 154.300781 133.683594 C 155.722656 132.847656 157.164062 132.019531 158.628906 131.21875 C 202.148438 107.347656 249.125 109.332031 263.558594 135.644531 C 268.203125 144.117188 268.90625 154.078125 266.273438 164.484375 C 271.867188 150.722656 272.28125 137.347656 266.285156 126.421875 " fill-opacity="1" fill-rule="nonzero"/><path fill="#0a2351" d="M 125.5625 235.914062 L 177.667969 235.914062 C 188.070312 232.816406 198.691406 228.414062 209.136719 222.683594 C 231.5625 210.386719 249.28125 194.125 260.347656 177.261719 L 260.347656 144.414062 C 260.347656 139.425781 256.425781 135.355469 251.492188 135.113281 L 251.492188 135.101562 L 125.5625 135.101562 C 120.417969 135.101562 116.246094 139.273438 116.246094 144.414062 L 116.246094 226.601562 C 116.246094 231.746094 120.417969 235.914062 125.5625 235.914062 " fill-opacity="1" fill-rule="nonzero"/><path fill="#609bc7" d="M 280.648438 127.359375 C 273.902344 115.058594 260.957031 107.359375 244.511719 104.339844 C 255.980469 108.140625 265.011719 114.835938 270.238281 124.371094 C 286.480469 153.984375 259.9375 199.769531 210.957031 226.628906 C 161.976562 253.492188 109.101562 251.261719 92.863281 221.648438 C 87.632812 212.113281 86.839844 200.902344 89.800781 189.183594 C 83.507812 204.675781 83.042969 219.730469 89.789062 232.027344 C 106.820312 263.085938 163.351562 264.828125 216.054688 235.921875 L 216.070312 235.914062 L 251.03125 235.914062 C 256.175781 235.914062 260.347656 231.746094 260.347656 226.601562 L 260.347656 201.457031 C 283.019531 176.285156 291.945312 147.960938 280.648438 127.359375 " fill-opacity="1" fill-rule="nonzero"/><g transform="matrix(1, 0, 0, 1, 218, 97)"><g clip-path="url(#8d76225959)"><g clip-path="url(#d154328156)"><path fill="#0a2351" d="M 24.386719 0.21875 C 32.964844 0.21875 39.925781 7.179688 39.925781 15.753906 C 39.925781 24.328125 32.964844 31.292969 24.386719 31.292969 Z M 24.386719 0.21875 " fill-opacity="1" fill-rule="evenodd"/></g><g clip-path="url(#a781184177)"><g clip-path="url(#1e25b7ac04)"><path fill="url(#12353fe18f)" d="M 39.1875 0.957031 L 24.386719 0.957031 L 24.386719 30.554688 L 39.1875 30.554688 Z M 39.1875 0.957031 " fill-rule="nonzero"/></g></g><g clip-path="url(#090a34eba4)"><path fill="#0a2351" d="M 24.386719 4.652344 C 30.515625 4.652344 35.492188 9.628906 35.492188 15.753906 C 35.492188 21.882812 30.515625 26.859375 24.386719 26.859375 Z M 24.386719 4.652344 " fill-opacity="1" fill-rule="evenodd"/></g><g clip-path="url(#2027aa0f37)"><path fill="#0a2351" d="M 24.386719 9.761719 C 27.695312 9.761719 30.382812 12.449219 30.382812 15.753906 C 30.382812 19.0625 27.695312 21.75 24.386719 21.75 Z M 24.386719 9.761719 " fill-opacity="1" fill-rule="evenodd"/></g><g clip-path="url(#b52d68fb61)"><g transform="matrix(1, 0, 0, 1, 8, 0)"><g clip-path="url(#66d2dd8780)"><g clip-path="url(#e598a52f9f)"><path fill="#0a2351" d="M 16.378906 0.21875 C 7.804688 0.21875 0.84375 7.179688 0.84375 15.753906 C 0.84375 24.328125 7.804688 31.292969 16.378906 31.292969 Z M 16.378906 0.21875 " fill-opacity="1" fill-rule="evenodd"/></g><g clip-path="url(#4d417a3b5e)"><g clip-path="url(#39ba3e8913)"><path fill="url(#6a0410d441)" d="M 1.582031 0.957031 L 16.214844 0.957031 L 16.214844 30.554688 L 1.582031 30.554688 Z M 1.582031 0.957031 " fill-rule="nonzero"/></g></g><g clip-path="url(#44bb6e709b)"><path fill="#0a2351" d="M 16.378906 4.652344 C 10.253906 4.652344 5.277344 9.628906 5.277344 15.753906 C 5.277344 21.882812 10.253906 26.859375 16.378906 26.859375 Z M 16.378906 4.652344 " fill-opacity="1" fill-rule="evenodd"/></g><g clip-path="url(#81f68afa8b)"><path fill="#0a2351" d="M 16.378906 9.761719 C 13.070312 9.761719 10.386719 12.449219 10.386719 15.753906 C 10.386719 19.0625 13.070312 21.75 16.378906 21.75 Z M 16.378906 9.761719 " fill-opacity="1" fill-rule="evenodd"/></g></g></g></g></g></g><g transform="matrix(1, 0, 0, 1, 109, 239)"><g clip-path="url(#543d5ae568)"><g clip-path="url(#71aa40b339)"><path fill="#0a2351" d="M 13.589844 0.992188 C 18.480469 0.992188 22.445312 4.960938 22.445312 9.847656 C 22.445312 14.734375 18.480469 18.703125 13.589844 18.703125 Z M 13.589844 0.992188 " fill-opacity="1" fill-rule="evenodd"/></g><g clip-path="url(#1554dcc471)"><g clip-path="url(#a3334a16a3)"><path fill="url(#7d3aa02626)" d="M 22.027344 1.414062 L 13.589844 1.414062 L 13.589844 18.285156 L 22.027344 18.285156 Z M 22.027344 1.414062 " fill-rule="nonzero"/></g></g><g clip-path="url(#7c3e9b5452)"><path fill="#0a2351" d="M 13.589844 3.519531 C 17.085938 3.519531 19.921875 6.355469 19.921875 9.847656 C 19.921875 13.339844 17.085938 16.175781 13.589844 16.175781 Z M 13.589844 3.519531 " fill-opacity="1" fill-rule="evenodd"/></g><g clip-path="url(#9fcab84d88)"><path fill="#0a2351" d="M 13.589844 6.433594 C 15.476562 6.433594 17.007812 7.964844 17.007812 9.847656 C 17.007812 11.734375 15.476562 13.265625 13.589844 13.265625 Z M 13.589844 6.433594 " fill-opacity="1" fill-rule="evenodd"/></g><g clip-path="url(#11b3815bf1)"><g transform="matrix(1, 0, 0, 1, 4, 0)"><g clip-path="url(#7289ec23c0)"><g clip-path="url(#cd420ce05b)"><path fill="#0a2351" d="M 9.585938 0.992188 C 4.699219 0.992188 0.730469 4.960938 0.730469 9.847656 C 0.730469 14.734375 4.699219 18.703125 9.585938 18.703125 Z M 9.585938 0.992188 " fill-opacity="1" fill-rule="evenodd"/></g><g clip-path="url(#ca89504766)"><g clip-path="url(#8aa2f62291)"><path fill="url(#a51ec9fc06)" d="M 1.152344 1.414062 L 9.492188 1.414062 L 9.492188 18.285156 L 1.152344 18.285156 Z M 1.152344 1.414062 " fill-rule="nonzero"/></g></g><g clip-path="url(#ec39d9121b)"><path fill="#0a2351" d="M 9.585938 3.519531 C 6.09375 3.519531 3.257812 6.355469 3.257812 9.847656 C 3.257812 13.339844 6.09375 16.175781 9.585938 16.175781 Z M 9.585938 3.519531 " fill-opacity="1" fill-rule="evenodd"/></g><g clip-path="url(#c491451abe)"><path fill="#0a2351" d="M 9.585938 6.433594 C 7.699219 6.433594 6.171875 7.964844 6.171875 9.847656 C 6.171875 11.734375 7.699219 13.265625 9.585938 13.265625 Z M 9.585938 6.433594 " fill-opacity="1" fill-rule="evenodd"/></g></g></g></g></g></g><g clip-path="url(#4ddf42db3d)"><g clip-path="url(#48c8193d31)"><g transform="matrix(1, 0, 0, 1, 127, 145)"><g clip-path="url(#36535429c9)"><g clip-path="url(#4428824c51)"><g clip-path="url(#c1775db62a)"><path fill="#ffffff" d="M 0.695312 0.601562 L 60.5 0.601562 L 60.5 36.042969 L 0.695312 36.042969 Z M 0.695312 0.601562 " fill-opacity="1" fill-rule="nonzero"/></g></g></g></g></g></g><g fill="#0a2351" fill-opacity="1"><g transform="translate(107.812424, 303.300772)"><g><path d="M 24.6875 -20.21875 L 24.6875 0 L 19.765625 0 L 19.765625 -12.125 L 15.234375 0 L 11.265625 0 L 6.71875 -12.15625 L 6.71875 0 L 1.78125 0 L 1.78125 -20.21875 L 7.609375 -20.21875 L 13.28125 -6.21875 L 18.90625 -20.21875 Z M 24.6875 -20.21875 "/></g></g></g><g fill="#0a2351" fill-opacity="1"><g transform="translate(132.814559, 303.300772)"><g><path d="M 9.109375 0.234375 C 7.523438 0.234375 6.101562 -0.0976562 4.84375 -0.765625 C 3.59375 -1.441406 2.609375 -2.40625 1.890625 -3.65625 C 1.171875 -4.90625 0.8125 -6.363281 0.8125 -8.03125 C 0.8125 -9.6875 1.175781 -11.144531 1.90625 -12.40625 C 2.632812 -13.664062 3.628906 -14.628906 4.890625 -15.296875 C 6.160156 -15.972656 7.582031 -16.3125 9.15625 -16.3125 C 10.738281 -16.3125 12.160156 -15.972656 13.421875 -15.296875 C 14.691406 -14.628906 15.691406 -13.664062 16.421875 -12.40625 C 17.148438 -11.144531 17.515625 -9.6875 17.515625 -8.03125 C 17.515625 -6.382812 17.144531 -4.929688 16.40625 -3.671875 C 15.664062 -2.410156 14.65625 -1.441406 13.375 -0.765625 C 12.101562 -0.0976562 10.679688 0.234375 9.109375 0.234375 Z M 9.109375 -4.03125 C 10.046875 -4.03125 10.84375 -4.375 11.5 -5.0625 C 12.164062 -5.757812 12.5 -6.75 12.5 -8.03125 C 12.5 -9.320312 12.175781 -10.3125 11.53125 -11 C 10.894531 -11.695312 10.101562 -12.046875 9.15625 -12.046875 C 8.195312 -12.046875 7.398438 -11.703125 6.765625 -11.015625 C 6.128906 -10.335938 5.8125 -9.34375 5.8125 -8.03125 C 5.8125 -6.75 6.125 -5.757812 6.75 -5.0625 C 7.375 -4.375 8.160156 -4.03125 9.109375 -4.03125 Z M 9.109375 -4.03125 "/></g></g></g><g fill="#0a2351" fill-opacity="1"><g transform="translate(149.722597, 303.300772)"><g><path d="M 11.578125 -16.25 C 13.460938 -16.25 14.96875 -15.640625 16.09375 -14.421875 C 17.21875 -13.203125 17.78125 -11.523438 17.78125 -9.390625 L 17.78125 0 L 12.875 0 L 12.875 -8.734375 C 12.875 -9.804688 12.59375 -10.640625 12.03125 -11.234375 C 11.476562 -11.828125 10.734375 -12.125 9.796875 -12.125 C 8.859375 -12.125 8.109375 -11.828125 7.546875 -11.234375 C 6.992188 -10.640625 6.71875 -9.804688 6.71875 -8.734375 L 6.71875 0 L 1.78125 0 L 1.78125 -16.078125 L 6.71875 -16.078125 L 6.71875 -13.9375 C 7.21875 -14.65625 7.890625 -15.21875 8.734375 -15.625 C 9.578125 -16.039062 10.523438 -16.25 11.578125 -16.25 Z M 11.578125 -16.25 "/></g></g></g><g fill="#0a2351" fill-opacity="1"><g transform="translate(167.6964, 303.300772)"><g><path d="M 11.359375 0.203125 C 9.453125 0.203125 7.707031 -0.238281 6.125 -1.125 C 4.539062 -2.007812 3.28125 -3.242188 2.34375 -4.828125 C 1.414062 -6.410156 0.953125 -8.191406 0.953125 -10.171875 C 0.953125 -12.148438 1.414062 -13.925781 2.34375 -15.5 C 3.28125 -17.070312 4.539062 -18.300781 6.125 -19.1875 C 7.707031 -20.070312 9.453125 -20.515625 11.359375 -20.515625 C 13.253906 -20.515625 14.992188 -20.070312 16.578125 -19.1875 C 18.160156 -18.300781 19.410156 -17.070312 20.328125 -15.5 C 21.242188 -13.925781 21.703125 -12.148438 21.703125 -10.171875 C 21.703125 -8.191406 21.238281 -6.410156 20.3125 -4.828125 C 19.394531 -3.242188 18.144531 -2.007812 16.5625 -1.125 C 14.988281 -0.238281 13.253906 0.203125 11.359375 0.203125 Z M 11.359375 -4.296875 C 12.960938 -4.296875 14.25 -4.832031 15.21875 -5.90625 C 16.195312 -6.976562 16.6875 -8.398438 16.6875 -10.171875 C 16.6875 -11.953125 16.195312 -13.375 15.21875 -14.4375 C 14.25 -15.507812 12.960938 -16.046875 11.359375 -16.046875 C 9.722656 -16.046875 8.421875 -15.515625 7.453125 -14.453125 C 6.484375 -13.398438 6 -11.972656 6 -10.171875 C 6 -8.378906 6.484375 -6.953125 7.453125 -5.890625 C 8.421875 -4.828125 9.722656 -4.296875 11.359375 -4.296875 Z M 11.359375 -4.296875 "/></g></g></g><g fill="#0a2351" fill-opacity="1"><g transform="translate(188.896327, 303.300772)"><g><path d="M 6.71875 -13.390625 C 7.289062 -14.273438 8.007812 -14.972656 8.875 -15.484375 C 9.738281 -15.992188 10.695312 -16.25 11.75 -16.25 L 11.75 -11.03125 L 10.40625 -11.03125 C 9.175781 -11.03125 8.253906 -10.765625 7.640625 -10.234375 C 7.023438 -9.710938 6.71875 -8.789062 6.71875 -7.46875 L 6.71875 0 L 1.78125 0 L 1.78125 -16.078125 L 6.71875 -16.078125 Z M 6.71875 -13.390625 "/></g></g></g><g fill="#0a2351" fill-opacity="1"><g transform="translate(199.784201, 303.300772)"><g><path d="M 0.8125 -8.0625 C 0.8125 -9.71875 1.117188 -11.171875 1.734375 -12.421875 C 2.359375 -13.671875 3.207031 -14.628906 4.28125 -15.296875 C 5.363281 -15.972656 6.566406 -16.3125 7.890625 -16.3125 C 8.953125 -16.3125 9.914062 -16.085938 10.78125 -15.640625 C 11.65625 -15.203125 12.34375 -14.609375 12.84375 -13.859375 L 12.84375 -21.328125 L 17.78125 -21.328125 L 17.78125 0 L 12.84375 0 L 12.84375 -2.3125 C 12.382812 -1.539062 11.726562 -0.921875 10.875 -0.453125 C 10.019531 0.00390625 9.023438 0.234375 7.890625 0.234375 C 6.566406 0.234375 5.363281 -0.101562 4.28125 -0.78125 C 3.207031 -1.46875 2.359375 -2.441406 1.734375 -3.703125 C 1.117188 -4.960938 0.8125 -6.414062 0.8125 -8.0625 Z M 12.84375 -8.03125 C 12.84375 -9.257812 12.5 -10.226562 11.8125 -10.9375 C 11.132812 -11.65625 10.304688 -12.015625 9.328125 -12.015625 C 8.347656 -12.015625 7.515625 -11.660156 6.828125 -10.953125 C 6.148438 -10.253906 5.8125 -9.289062 5.8125 -8.0625 C 5.8125 -6.832031 6.148438 -5.859375 6.828125 -5.140625 C 7.515625 -4.421875 8.347656 -4.0625 9.328125 -4.0625 C 10.304688 -4.0625 11.132812 -4.414062 11.8125 -5.125 C 12.5 -5.832031 12.84375 -6.800781 12.84375 -8.03125 Z M 12.84375 -8.03125 "/></g></g></g><g fill="#0a2351" fill-opacity="1"><g transform="translate(217.902028, 303.300772)"><g><path d="M 4.265625 -17.75 C 3.398438 -17.75 2.691406 -18.003906 2.140625 -18.515625 C 1.597656 -19.023438 1.328125 -19.65625 1.328125 -20.40625 C 1.328125 -21.164062 1.597656 -21.800781 2.140625 -22.3125 C 2.691406 -22.820312 3.398438 -23.078125 4.265625 -23.078125 C 5.109375 -23.078125 5.800781 -22.820312 6.34375 -22.3125 C 6.894531 -21.800781 7.171875 -21.164062 7.171875 -20.40625 C 7.171875 -19.65625 6.894531 -19.023438 6.34375 -18.515625 C 5.800781 -18.003906 5.109375 -17.75 4.265625 -17.75 Z M 6.71875 -16.078125 L 6.71875 0 L 1.78125 0 L 1.78125 -16.078125 Z M 6.71875 -16.078125 "/></g></g></g><g fill="#0a2351" fill-opacity="1"><g transform="translate(224.958889, 303.300772)"><g><path d="M 4.09375 0.234375 C 3.226562 0.234375 2.519531 -0.0195312 1.96875 -0.53125 C 1.425781 -1.039062 1.15625 -1.671875 1.15625 -2.421875 C 1.15625 -3.191406 1.425781 -3.832031 1.96875 -4.34375 C 2.519531 -4.863281 3.226562 -5.125 4.09375 -5.125 C 4.9375 -5.125 5.628906 -4.863281 6.171875 -4.34375 C 6.722656 -3.832031 7 -3.191406 7 -2.421875 C 7 -1.671875 6.722656 -1.039062 6.171875 -0.53125 C 5.628906 -0.0195312 4.9375 0.234375 4.09375 0.234375 Z M 4.09375 0.234375 "/></g></g></g><g fill="#0a2351" fill-opacity="1"><g transform="translate(231.6413, 303.300772)"><g><path d="M 0.8125 -8.03125 C 0.8125 -9.707031 1.148438 -11.171875 1.828125 -12.421875 C 2.515625 -13.671875 3.46875 -14.628906 4.6875 -15.296875 C 5.90625 -15.972656 7.300781 -16.3125 8.875 -16.3125 C 10.894531 -16.3125 12.582031 -15.78125 13.9375 -14.71875 C 15.289062 -13.664062 16.175781 -12.175781 16.59375 -10.25 L 11.359375 -10.25 C 10.910156 -11.476562 10.050781 -12.09375 8.78125 -12.09375 C 7.882812 -12.09375 7.164062 -11.742188 6.625 -11.046875 C 6.082031 -10.347656 5.8125 -9.34375 5.8125 -8.03125 C 5.8125 -6.726562 6.082031 -5.722656 6.625 -5.015625 C 7.164062 -4.316406 7.882812 -3.96875 8.78125 -3.96875 C 10.050781 -3.96875 10.910156 -4.582031 11.359375 -5.8125 L 16.59375 -5.8125 C 16.175781 -3.9375 15.285156 -2.457031 13.921875 -1.375 C 12.554688 -0.300781 10.875 0.234375 8.875 0.234375 C 7.300781 0.234375 5.90625 -0.0976562 4.6875 -0.765625 C 3.46875 -1.441406 2.515625 -2.40625 1.828125 -3.65625 C 1.148438 -4.90625 0.8125 -6.363281 0.8125 -8.03125 Z M 0.8125 -8.03125 "/></g></g></g><g fill="#0a2351" fill-opacity="1"><g transform="translate(247.627596, 303.300772)"><g><path d="M 0.8125 -8.0625 C 0.8125 -9.71875 1.117188 -11.171875 1.734375 -12.421875 C 2.359375 -13.671875 3.207031 -14.628906 4.28125 -15.296875 C 5.363281 -15.972656 6.566406 -16.3125 7.890625 -16.3125 C 9.023438 -16.3125 10.019531 -16.078125 10.875 -15.609375 C 11.726562 -15.148438 12.382812 -14.546875 12.84375 -13.796875 L 12.84375 -16.078125 L 17.78125 -16.078125 L 17.78125 0 L 12.84375 0 L 12.84375 -2.28125 C 12.363281 -1.53125 11.695312 -0.921875 10.84375 -0.453125 C 9.988281 0.00390625 8.992188 0.234375 7.859375 0.234375 C 6.554688 0.234375 5.363281 -0.101562 4.28125 -0.78125 C 3.207031 -1.46875 2.359375 -2.441406 1.734375 -3.703125 C 1.117188 -4.960938 0.8125 -6.414062 0.8125 -8.0625 Z M 12.84375 -8.03125 C 12.84375 -9.257812 12.5 -10.226562 11.8125 -10.9375 C 11.132812 -11.65625 10.304688 -12.015625 9.328125 -12.015625 C 8.347656 -12.015625 7.515625 -11.660156 6.828125 -10.953125 C 6.148438 -10.253906 5.8125 -9.289062 5.8125 -8.0625 C 5.8125 -6.832031 6.148438 -5.859375 6.828125 -5.140625 C 7.515625 -4.421875 8.347656 -4.0625 9.328125 -4.0625 C 10.304688 -4.0625 11.132812 -4.414062 11.8125 -5.125 C 12.5 -5.832031 12.84375 -6.800781 12.84375 -8.03125 Z M 12.84375 -8.03125 "/></g></g></g><g transform="matrix(1, 0, 0, 1, 119, 310)"><g clip-path="url(#b7fdb71429)"><g fill="#0a2351" fill-opacity="1"><g transform="translate(0.48477, 12.814356)"><g><path d="M 3.6875 0.09375 C 3.101562 0.09375 2.585938 -0.00390625 2.140625 -0.203125 C 1.703125 -0.410156 1.359375 -0.695312 1.109375 -1.0625 C 0.859375 -1.425781 0.722656 -1.832031 0.703125 -2.28125 L 1.640625 -2.28125 C 1.679688 -1.84375 1.867188 -1.460938 2.203125 -1.140625 C 2.546875 -0.816406 3.039062 -0.65625 3.6875 -0.65625 C 4.289062 -0.65625 4.765625 -0.804688 5.109375 -1.109375 C 5.460938 -1.421875 5.640625 -1.8125 5.640625 -2.28125 C 5.640625 -2.664062 5.539062 -2.972656 5.34375 -3.203125 C 5.15625 -3.429688 4.914062 -3.601562 4.625 -3.71875 C 4.34375 -3.832031 3.945312 -3.957031 3.4375 -4.09375 C 2.84375 -4.25 2.375 -4.40625 2.03125 -4.5625 C 1.6875 -4.71875 1.390625 -4.953125 1.140625 -5.265625 C 0.898438 -5.585938 0.78125 -6.023438 0.78125 -6.578125 C 0.78125 -7.023438 0.894531 -7.425781 1.125 -7.78125 C 1.363281 -8.144531 1.695312 -8.425781 2.125 -8.625 C 2.5625 -8.832031 3.054688 -8.9375 3.609375 -8.9375 C 4.429688 -8.9375 5.09375 -8.734375 5.59375 -8.328125 C 6.09375 -7.929688 6.378906 -7.414062 6.453125 -6.78125 L 5.5 -6.78125 C 5.4375 -7.144531 5.238281 -7.46875 4.90625 -7.75 C 4.570312 -8.03125 4.117188 -8.171875 3.546875 -8.171875 C 3.015625 -8.171875 2.570312 -8.03125 2.21875 -7.75 C 1.863281 -7.46875 1.6875 -7.082031 1.6875 -6.59375 C 1.6875 -6.226562 1.78125 -5.929688 1.96875 -5.703125 C 2.164062 -5.472656 2.410156 -5.296875 2.703125 -5.171875 C 2.992188 -5.054688 3.382812 -4.929688 3.875 -4.796875 C 4.445312 -4.640625 4.910156 -4.484375 5.265625 -4.328125 C 5.617188 -4.171875 5.914062 -3.929688 6.15625 -3.609375 C 6.40625 -3.296875 6.53125 -2.867188 6.53125 -2.328125 C 6.53125 -1.910156 6.421875 -1.515625 6.203125 -1.140625 C 5.984375 -0.773438 5.660156 -0.476562 5.234375 -0.25 C 4.804688 -0.0195312 4.289062 0.09375 3.6875 0.09375 Z M 3.6875 0.09375 "/></g></g></g><g fill="#0a2351" fill-opacity="1"><g transform="translate(10.029575, 12.814356)"><g><path d="M 6.65625 -6.296875 C 6.65625 -5.535156 6.40625 -4.921875 5.90625 -4.453125 C 5.414062 -3.992188 4.671875 -3.765625 3.671875 -3.765625 L 1.890625 -3.765625 L 1.890625 0 L 1.015625 0 L 1.015625 -8.828125 L 3.671875 -8.828125 C 4.660156 -8.828125 5.40625 -8.597656 5.90625 -8.140625 C 6.40625 -7.679688 6.65625 -7.066406 6.65625 -6.296875 Z M 3.671875 -4.53125 C 5.054688 -4.53125 5.75 -5.117188 5.75 -6.296875 C 5.75 -6.890625 5.582031 -7.335938 5.25 -7.640625 C 4.925781 -7.941406 4.398438 -8.09375 3.671875 -8.09375 L 1.890625 -8.09375 L 1.890625 -4.53125 Z M 3.671875 -4.53125 "/></g></g></g><g fill="#0a2351" fill-opacity="1"><g transform="translate(19.473258, 12.814356)"><g><path d="M 1.890625 -8.109375 L 1.890625 -4.8125 L 5.25 -4.8125 L 5.25 -4.078125 L 1.890625 -4.078125 L 1.890625 -0.734375 L 5.625 -0.734375 L 5.625 0 L 1.015625 0 L 1.015625 -8.84375 L 5.625 -8.84375 L 5.625 -8.109375 Z M 4.3125 -10.75 L 1.71875 -9.25 L 1.71875 -9.921875 L 4.3125 -11.546875 Z M 4.3125 -10.75 "/></g></g></g><g fill="#0a2351" fill-opacity="1"><g transform="translate(28.14586, 12.814356)"><g><path d="M 0.609375 -4.421875 C 0.609375 -5.285156 0.796875 -6.0625 1.171875 -6.75 C 1.554688 -7.4375 2.078125 -7.972656 2.734375 -8.359375 C 3.390625 -8.742188 4.125 -8.9375 4.9375 -8.9375 C 5.914062 -8.9375 6.753906 -8.703125 7.453125 -8.234375 C 8.160156 -7.765625 8.675781 -7.101562 9 -6.25 L 7.96875 -6.25 C 7.707031 -6.851562 7.316406 -7.320312 6.796875 -7.65625 C 6.285156 -8 5.664062 -8.171875 4.9375 -8.171875 C 4.28125 -8.171875 3.691406 -8.015625 3.171875 -7.703125 C 2.660156 -7.398438 2.253906 -6.960938 1.953125 -6.390625 C 1.660156 -5.828125 1.515625 -5.171875 1.515625 -4.421875 C 1.515625 -3.671875 1.660156 -3.015625 1.953125 -2.453125 C 2.253906 -1.890625 2.660156 -1.453125 3.171875 -1.140625 C 3.691406 -0.835938 4.28125 -0.6875 4.9375 -0.6875 C 5.664062 -0.6875 6.285156 -0.851562 6.796875 -1.1875 C 7.316406 -1.519531 7.707031 -1.984375 7.96875 -2.578125 L 9 -2.578125 C 8.675781 -1.734375 8.160156 -1.078125 7.453125 -0.609375 C 6.742188 -0.148438 5.90625 0.078125 4.9375 0.078125 C 4.125 0.078125 3.390625 -0.113281 2.734375 -0.5 C 2.078125 -0.882812 1.554688 -1.414062 1.171875 -2.09375 C 0.796875 -2.78125 0.609375 -3.554688 0.609375 -4.421875 Z M 0.609375 -4.421875 "/></g></g></g><g fill="#0a2351" fill-opacity="1"><g transform="translate(40.206157, 12.814356)"><g><path d="M 1.890625 -8.828125 L 1.890625 0 L 1.015625 0 L 1.015625 -8.828125 Z M 1.890625 -8.828125 "/></g></g></g><g fill="#0a2351" fill-opacity="1"><g transform="translate(45.415222, 12.814356)"><g><path d="M 6.125 -2.09375 L 2.109375 -2.09375 L 1.34375 0 L 0.40625 0 L 3.625 -8.71875 L 4.625 -8.71875 L 7.84375 0 L 6.90625 0 Z M 5.859375 -2.828125 L 4.125 -7.609375 L 2.375 -2.828125 Z M 5.859375 -2.828125 "/></g></g></g><g fill="#0a2351" fill-opacity="1"><g transform="translate(55.971282, 12.814356)"><g><path d="M 1.890625 -0.71875 L 5.0625 -0.71875 L 5.0625 0 L 1.015625 0 L 1.015625 -8.828125 L 1.890625 -8.828125 Z M 1.890625 -0.71875 "/></g></g></g><g fill="#0a2351" fill-opacity="1"><g transform="translate(63.607354, 12.814356)"><g><path d="M 1.890625 -8.828125 L 1.890625 0 L 1.015625 0 L 1.015625 -8.828125 Z M 1.890625 -8.828125 "/></g></g></g><g fill="#0a2351" fill-opacity="1"><g transform="translate(68.816419, 12.814356)"><g><path d="M 6.1875 -8.828125 L 6.1875 -8.109375 L 3.734375 -8.109375 L 3.734375 0 L 2.84375 0 L 2.84375 -8.109375 L 0.375 -8.109375 L 0.375 -8.828125 Z M 6.1875 -8.828125 "/></g></g></g><g fill="#0a2351" fill-opacity="1"><g transform="translate(77.703911, 12.814356)"><g><path d="M 1.890625 -8.109375 L 1.890625 -4.8125 L 5.25 -4.8125 L 5.25 -4.078125 L 1.890625 -4.078125 L 1.890625 -0.734375 L 5.625 -0.734375 L 5.625 0 L 1.015625 0 L 1.015625 -8.84375 L 5.625 -8.84375 L 5.625 -8.109375 Z M 4.3125 -10.75 L 1.71875 -9.25 L 1.71875 -9.921875 L 4.3125 -11.546875 Z M 4.3125 -10.75 "/></g></g></g><g fill="#0a2351" fill-opacity="1"><g transform="translate(86.376512, 12.814356)"><g/></g></g><g fill="#0a2351" fill-opacity="1"><g transform="translate(92.154407, 12.814356)"><g><path d="M 6.1875 -8.828125 L 6.1875 -8.109375 L 3.734375 -8.109375 L 3.734375 0 L 2.84375 0 L 2.84375 -8.109375 L 0.375 -8.109375 L 0.375 -8.828125 Z M 6.1875 -8.828125 "/></g></g></g><g fill="#0a2351" fill-opacity="1"><g transform="translate(101.041899, 12.814356)"><g><path d="M 1.15625 0.0625 C 0.976562 0.0625 0.828125 0 0.703125 -0.125 C 0.578125 -0.25 0.515625 -0.40625 0.515625 -0.59375 C 0.515625 -0.78125 0.578125 -0.929688 0.703125 -1.046875 C 0.828125 -1.171875 0.976562 -1.234375 1.15625 -1.234375 C 1.332031 -1.234375 1.484375 -1.171875 1.609375 -1.046875 C 1.734375 -0.929688 1.796875 -0.78125 1.796875 -0.59375 C 1.796875 -0.40625 1.734375 -0.25 1.609375 -0.125 C 1.484375 0 1.332031 0.0625 1.15625 0.0625 Z M 1.15625 0.0625 "/></g></g></g><g fill="#0a2351" fill-opacity="1"><g transform="translate(105.656852, 12.814356)"><g><path d="M 1.890625 -8.828125 L 1.890625 0 L 1.015625 0 L 1.015625 -8.828125 Z M 1.890625 -8.828125 "/></g></g></g><g fill="#0a2351" fill-opacity="1"><g transform="translate(110.865918, 12.814356)"><g><path d="M 1.15625 0.0625 C 0.976562 0.0625 0.828125 0 0.703125 -0.125 C 0.578125 -0.25 0.515625 -0.40625 0.515625 -0.59375 C 0.515625 -0.78125 0.578125 -0.929688 0.703125 -1.046875 C 0.828125 -1.171875 0.976562 -1.234375 1.15625 -1.234375 C 1.332031 -1.234375 1.484375 -1.171875 1.609375 -1.046875 C 1.734375 -0.929688 1.796875 -0.78125 1.796875 -0.59375 C 1.796875 -0.40625 1.734375 -0.25 1.609375 -0.125 C 1.484375 0 1.332031 0.0625 1.15625 0.0625 Z M 1.15625 0.0625 "/></g></g></g><g fill="#0a2351" fill-opacity="1"><g transform="translate(115.480871, 12.814356)"><g/></g></g><g fill="#0a2351" fill-opacity="1"><g transform="translate(121.258773, 12.814356)"><g><path d="M 1.890625 -8.109375 L 1.890625 -4.8125 L 5.25 -4.8125 L 5.25 -4.078125 L 1.890625 -4.078125 L 1.890625 -0.734375 L 5.625 -0.734375 L 5.625 0 L 1.015625 0 L 1.015625 -8.84375 L 5.625 -8.84375 L 5.625 -8.109375 Z M 1.890625 -8.109375 "/></g></g></g><g fill="#0a2351" fill-opacity="1"><g transform="translate(129.931361, 12.814356)"><g><path d="M 6.1875 -8.828125 L 6.1875 -8.109375 L 3.734375 -8.109375 L 3.734375 0 L 2.84375 0 L 2.84375 -8.109375 L 0.375 -8.109375 L 0.375 -8.828125 Z M 6.1875 -8.828125 "/></g></g></g><g fill="#0a2351" fill-opacity="1"><g transform="translate(10.516723, 30.296861)"><g><path d="M 1.890625 -8.828125 L 1.890625 0 L 1.015625 0 L 1.015625 -8.828125 Z M 1.890625 -8.828125 "/></g></g></g><g fill="#0a2351" fill-opacity="1"><g transform="translate(15.725788, 30.296861)"><g><path d="M 7.671875 0 L 6.78125 0 L 1.890625 -7.4375 L 1.890625 0 L 1.015625 0 L 1.015625 -8.828125 L 1.890625 -8.828125 L 6.78125 -1.421875 L 6.78125 -8.828125 L 7.671875 -8.828125 Z M 7.671875 0 "/></g></g></g><g fill="#0a2351" fill-opacity="1"><g transform="translate(26.711628, 30.296861)"><g><path d="M 5.796875 -8.828125 L 5.796875 -8.109375 L 1.890625 -8.109375 L 1.890625 -4.796875 L 5.1875 -4.796875 L 5.1875 -4.0625 L 1.890625 -4.0625 L 1.890625 0 L 1.015625 0 L 1.015625 -8.828125 Z M 5.796875 -8.828125 "/></g></g></g><g fill="#0a2351" fill-opacity="1"><g transform="translate(35.257824, 30.296861)"><g><path d="M 4.984375 0.09375 C 4.160156 0.09375 3.414062 -0.0976562 2.75 -0.484375 C 2.082031 -0.867188 1.554688 -1.40625 1.171875 -2.09375 C 0.796875 -2.78125 0.609375 -3.554688 0.609375 -4.421875 C 0.609375 -5.285156 0.796875 -6.0625 1.171875 -6.75 C 1.554688 -7.4375 2.082031 -7.972656 2.75 -8.359375 C 3.414062 -8.742188 4.160156 -8.9375 4.984375 -8.9375 C 5.804688 -8.9375 6.550781 -8.742188 7.21875 -8.359375 C 7.882812 -7.972656 8.40625 -7.4375 8.78125 -6.75 C 9.164062 -6.0625 9.359375 -5.285156 9.359375 -4.421875 C 9.359375 -3.554688 9.164062 -2.78125 8.78125 -2.09375 C 8.40625 -1.40625 7.882812 -0.867188 7.21875 -0.484375 C 6.550781 -0.0976562 5.804688 0.09375 4.984375 0.09375 Z M 4.984375 -0.6875 C 5.640625 -0.6875 6.226562 -0.835938 6.75 -1.140625 C 7.269531 -1.441406 7.679688 -1.875 7.984375 -2.4375 C 8.285156 -3.007812 8.4375 -3.671875 8.4375 -4.421875 C 8.4375 -5.171875 8.285156 -5.828125 7.984375 -6.390625 C 7.679688 -6.960938 7.269531 -7.398438 6.75 -7.703125 C 6.226562 -8.003906 5.640625 -8.15625 4.984375 -8.15625 C 4.328125 -8.15625 3.734375 -8.003906 3.203125 -7.703125 C 2.679688 -7.398438 2.269531 -6.960938 1.96875 -6.390625 C 1.664062 -5.828125 1.515625 -5.171875 1.515625 -4.421875 C 1.515625 -3.671875 1.664062 -3.007812 1.96875 -2.4375 C 2.269531 -1.875 2.679688 -1.441406 3.203125 -1.140625 C 3.734375 -0.835938 4.328125 -0.6875 4.984375 -0.6875 Z M 4.984375 -0.6875 "/></g></g></g><g fill="#0a2351" fill-opacity="1"><g transform="translate(47.533012, 30.296861)"><g><path d="M 7.671875 0 L 6.78125 0 L 1.890625 -7.4375 L 1.890625 0 L 1.015625 0 L 1.015625 -8.828125 L 1.890625 -8.828125 L 6.78125 -1.421875 L 6.78125 -8.828125 L 7.671875 -8.828125 Z M 7.671875 0 "/></g></g></g><g fill="#0a2351" fill-opacity="1"><g transform="translate(58.518852, 30.296861)"><g><path d="M 1.859375 -8.828125 L 1.859375 -3.28125 C 1.859375 -2.394531 2.066406 -1.738281 2.484375 -1.3125 C 2.898438 -0.894531 3.472656 -0.6875 4.203125 -0.6875 C 4.921875 -0.6875 5.484375 -0.894531 5.890625 -1.3125 C 6.304688 -1.738281 6.515625 -2.394531 6.515625 -3.28125 L 6.515625 -8.828125 L 7.390625 -8.828125 L 7.390625 -3.28125 C 7.390625 -2.164062 7.09375 -1.320312 6.5 -0.75 C 5.90625 -0.1875 5.132812 0.09375 4.1875 0.09375 C 3.226562 0.09375 2.453125 -0.1875 1.859375 -0.75 C 1.265625 -1.320312 0.96875 -2.164062 0.96875 -3.28125 L 0.96875 -8.828125 Z M 1.859375 -8.828125 "/></g></g></g><g fill="#0a2351" fill-opacity="1"><g transform="translate(69.188679, 30.296861)"><g><path d="M 6.125 -2.09375 L 2.109375 -2.09375 L 1.34375 0 L 0.40625 0 L 3.625 -8.71875 L 4.625 -8.71875 L 7.84375 0 L 6.90625 0 Z M 5.859375 -2.828125 L 4.125 -7.609375 L 2.375 -2.828125 Z M 5.859375 -2.828125 "/></g></g></g><g fill="#0a2351" fill-opacity="1"><g transform="translate(79.744739, 30.296861)"><g><path d="M 7.96875 -6.25 C 7.707031 -6.832031 7.316406 -7.289062 6.796875 -7.625 C 6.285156 -7.957031 5.679688 -8.125 4.984375 -8.125 C 4.328125 -8.125 3.734375 -7.972656 3.203125 -7.671875 C 2.679688 -7.367188 2.269531 -6.9375 1.96875 -6.375 C 1.664062 -5.8125 1.515625 -5.160156 1.515625 -4.421875 C 1.515625 -3.679688 1.664062 -3.03125 1.96875 -2.46875 C 2.269531 -1.90625 2.679688 -1.46875 3.203125 -1.15625 C 3.734375 -0.851562 4.328125 -0.703125 4.984375 -0.703125 C 5.597656 -0.703125 6.148438 -0.832031 6.640625 -1.09375 C 7.128906 -1.363281 7.523438 -1.742188 7.828125 -2.234375 C 8.128906 -2.734375 8.300781 -3.3125 8.34375 -3.96875 L 4.625 -3.96875 L 4.625 -4.6875 L 9.28125 -4.6875 L 9.28125 -4.046875 C 9.238281 -3.265625 9.023438 -2.5625 8.640625 -1.9375 C 8.265625 -1.3125 7.757812 -0.816406 7.125 -0.453125 C 6.488281 -0.0859375 5.773438 0.09375 4.984375 0.09375 C 4.160156 0.09375 3.414062 -0.0976562 2.75 -0.484375 C 2.082031 -0.867188 1.554688 -1.40625 1.171875 -2.09375 C 0.796875 -2.78125 0.609375 -3.554688 0.609375 -4.421875 C 0.609375 -5.285156 0.796875 -6.0625 1.171875 -6.75 C 1.554688 -7.4375 2.082031 -7.972656 2.75 -8.359375 C 3.414062 -8.742188 4.160156 -8.9375 4.984375 -8.9375 C 5.921875 -8.9375 6.742188 -8.695312 7.453125 -8.21875 C 8.160156 -7.75 8.675781 -7.09375 9 -6.25 Z M 7.96875 -6.25 "/></g></g></g><g fill="#0a2351" fill-opacity="1"><g transform="translate(91.944086, 30.296861)"><g><path d="M 1.890625 -8.828125 L 1.890625 0 L 1.015625 0 L 1.015625 -8.828125 Z M 1.890625 -8.828125 "/></g></g></g><g fill="#0a2351" fill-opacity="1"><g transform="translate(97.153151, 30.296861)"><g><path d="M 8.3125 1.734375 L 6.328125 -0.09375 C 5.898438 0.03125 5.453125 0.09375 4.984375 0.09375 C 4.160156 0.09375 3.414062 -0.0976562 2.75 -0.484375 C 2.082031 -0.867188 1.554688 -1.40625 1.171875 -2.09375 C 0.796875 -2.78125 0.609375 -3.554688 0.609375 -4.421875 C 0.609375 -5.285156 0.796875 -6.0625 1.171875 -6.75 C 1.554688 -7.4375 2.082031 -7.972656 2.75 -8.359375 C 3.414062 -8.742188 4.160156 -8.9375 4.984375 -8.9375 C 5.804688 -8.9375 6.550781 -8.742188 7.21875 -8.359375 C 7.882812 -7.972656 8.40625 -7.4375 8.78125 -6.75 C 9.164062 -6.0625 9.359375 -5.285156 9.359375 -4.421875 C 9.359375 -3.523438 9.160156 -2.726562 8.765625 -2.03125 C 8.367188 -1.34375 7.820312 -0.8125 7.125 -0.4375 L 9.5 1.734375 Z M 1.515625 -4.421875 C 1.515625 -3.671875 1.664062 -3.007812 1.96875 -2.4375 C 2.269531 -1.875 2.679688 -1.441406 3.203125 -1.140625 C 3.734375 -0.835938 4.328125 -0.6875 4.984375 -0.6875 C 5.640625 -0.6875 6.226562 -0.835938 6.75 -1.140625 C 7.269531 -1.441406 7.679688 -1.875 7.984375 -2.4375 C 8.285156 -3.007812 8.4375 -3.671875 8.4375 -4.421875 C 8.4375 -5.171875 8.285156 -5.828125 7.984375 -6.390625 C 7.679688 -6.960938 7.269531 -7.398438 6.75 -7.703125 C 6.226562 -8.003906 5.640625 -8.15625 4.984375 -8.15625 C 4.328125 -8.15625 3.734375 -8.003906 3.203125 -7.703125 C 2.679688 -7.398438 2.269531 -6.960938 1.96875 -6.390625 C 1.664062 -5.828125 1.515625 -5.171875 1.515625 -4.421875 Z M 1.515625 -4.421875 "/></g></g></g><g fill="#0a2351" fill-opacity="1"><g transform="translate(109.440983, 30.296861)"><g><path d="M 1.859375 -8.828125 L 1.859375 -3.28125 C 1.859375 -2.394531 2.066406 -1.738281 2.484375 -1.3125 C 2.898438 -0.894531 3.472656 -0.6875 4.203125 -0.6875 C 4.921875 -0.6875 5.484375 -0.894531 5.890625 -1.3125 C 6.304688 -1.738281 6.515625 -2.394531 6.515625 -3.28125 L 6.515625 -8.828125 L 7.390625 -8.828125 L 7.390625 -3.28125 C 7.390625 -2.164062 7.09375 -1.320312 6.5 -0.75 C 5.90625 -0.1875 5.132812 0.09375 4.1875 0.09375 C 3.226562 0.09375 2.453125 -0.1875 1.859375 -0.75 C 1.265625 -1.320312 0.96875 -2.164062 0.96875 -3.28125 L 0.96875 -8.828125 Z M 1.859375 -8.828125 "/></g></g></g><g fill="#0a2351" fill-opacity="1"><g transform="translate(120.11081, 30.296861)"><g><path d="M 1.890625 -8.109375 L 1.890625 -4.8125 L 5.25 -4.8125 L 5.25 -4.078125 L 1.890625 -4.078125 L 1.890625 -0.734375 L 5.625 -0.734375 L 5.625 0 L 1.015625 0 L 1.015625 -8.84375 L 5.625 -8.84375 L 5.625 -8.109375 Z M 1.890625 -8.109375 "/></g></g></g></g></g></svg>